<svg xmlns="http://www.w3.org/2000/svg" viewBox="0 0 290.23 50"><defs><style>.cls-1{fill:#fff;}.cls-2{fill:#959595;}</style></defs><g id="Layer_2" data-name="Layer 2"><g id="Layer_1-2" data-name="Layer 1"><path class="cls-1" d="M545.53,633.5a25,25,0,1,1-25-25A25,25,0,0,1,545.53,633.5Z" transform="translate(-495.53 -608.5)"/><path class="cls-2" d="M537.8,637.39H530a7.45,7.45,0,0,1-5.54-3.17c-1.62-2.46-1.55-5.8.22-9.94l1.47.63c-1.54,3.61-1.66,6.45-.35,8.42a5.89,5.89,0,0,0,4.2,2.47h7.85Z" transform="translate(-495.53 -608.5)"/><path class="cls-2" d="M511.75,637.39h-8.49V635.8h6.88a12.82,12.82,0,0,1,4.83-8.67c4.75-3.94,10.51-3.57,14.44-3l-.25,1.58c-3.62-.57-8.92-.92-13.16,2.6-4.47,3.72-4.3,8.15-4.29,8.2Z" transform="translate(-495.53 -608.5)"/><path class="cls-1" d="M605.58,633.5a25,25,0,1,1-25-25A25,25,0,0,1,605.58,633.5Z" transform="translate(-495.53 -608.5)"/><path class="cls-2" d="M578.42,649.48l-.48-.84c-2-3.45-3-11.83-3-18a16.87,16.87,0,0,1,5.15-12.54l.51-.43.52.43a16.87,16.87,0,0,1,5.15,12.54c0,6.13-1.06,14.51-3,18l-.48.84-2.16-1.85Zm2.16-4,1.69,1.44c1.5-3.55,2.38-10.78,2.38-16.28a15.8,15.8,0,0,0-4.06-10.8,15.85,15.85,0,0,0-4.07,10.8c0,5.5.88,12.72,2.38,16.28Z" transform="translate(-495.53 -608.5)"/><path class="cls-1" d="M665.64,633.5a25,25,0,1,1-25-25A25,25,0,0,1,665.64,633.5Z" transform="translate(-495.53 -608.5)"/><path class="cls-2" d="M654.78,643.75H629.47V622.2h13.27v10.21l7.31,1.21a6.89,6.89,0,0,1,5,9.67Zm-23.71-1.6h22.67a5.21,5.21,0,0,0,.3-1.76,5.29,5.29,0,0,0-4.28-5.2l-8.62-1.43v-10H631.07Z" transform="translate(-495.53 -608.5)"/><rect class="cls-2" x="140.49" y="18.76" width="5.92" height="1.6"/><rect class="cls-2" x="134.74" y="32.22" width="24.42" height="1.6"/><path class="cls-1" d="M725.7,633.5a25,25,0,1,1-25-25A25,25,0,0,1,725.7,633.5Z" transform="translate(-495.53 -608.5)"/><polygon class="cls-2" points="221.22 27.28 198.3 27.28 189.24 18.23 190.37 17.09 198.96 25.68 221.22 25.68 221.22 27.28"/><rect class="cls-2" x="688.27" y="637.98" width="7.5" height="1.6" transform="translate(-666.47 407.4) rotate(-66.31)"/><rect class="cls-2" x="709.62" y="634.79" width="1.6" height="7.24" transform="translate(-660.63 -351.83) rotate(-18.39)"/><rect class="cls-2" x="695.68" y="618.61" width="4.43" height="1.6" transform="translate(-727.02 -72.46) rotate(-36.46)"/><rect class="cls-2" x="700.55" y="622.49" width="4.43" height="1.6" transform="translate(-645.23 409.35) rotate(-66.41)"/><rect class="cls-2" x="708.13" y="622.01" width="1.6" height="4.43" transform="translate(-561.02 -525.11) rotate(-6.44)"/><path class="cls-1" d="M785.76,633.5a25,25,0,1,1-25-25A25,25,0,0,1,785.76,633.5Z" transform="translate(-495.53 -608.5)"/><path class="cls-2" d="M770.31,645.93h-19.1V620.24h19.1Zm-17.5-1.6h15.9V621.84h-15.9Z" transform="translate(-495.53 -608.5)"/><path class="cls-2" d="M760.76,630a2.91,2.91,0,1,1,2.91-2.91A2.91,2.91,0,0,1,760.76,630Zm0-4.21a1.31,1.31,0,1,0,1.31,1.3A1.31,1.31,0,0,0,760.76,625.74Z" transform="translate(-495.53 -608.5)"/><path class="cls-2" d="M760.76,643a6,6,0,1,1,6-6A6,6,0,0,1,760.76,643Zm0-10.49a4.45,4.45,0,1,0,4.45,4.45A4.45,4.45,0,0,0,760.76,632.46Z" transform="translate(-495.53 -608.5)"/></g></g></svg>