<svg xmlns="http://www.w3.org/2000/svg" viewBox="0 0 303.74 195.18"><defs><style>.cls-1{fill:#e5e5e5;}.cls-2{fill:#fff;}.cls-3{fill:#dc9d41;}.cls-4{fill:#565656;}.cls-5{fill:#8ab1c8;}.cls-6{fill:#e53910;}</style></defs><g id="Layer_2" data-name="Layer 2"><g id="Layer_1-2" data-name="Layer 1"><path class="cls-1" d="M3.6,195.18,0,188c39.56-19.94,99.4-31.37,164.16-31.37,51.81,0,101.38,7.46,139.58,21l-2.68,7.54c-37.36-13.24-86-20.53-136.9-20.53C100.61,164.66,42.08,175.78,3.6,195.18Z"/><rect class="cls-2" x="87.42" y="74.18" width="44.61" height="116.34"/><path class="cls-3" d="M136,194.52H83.42V70.18H136Zm-44.61-8H128V78.18H91.42Z"/><rect class="cls-2" x="132.03" y="74.18" width="101.81" height="116.34"/><path class="cls-3" d="M237.84,194.52H128V70.18H237.84Zm-101.81-8h93.81V78.18H136Z"/><rect class="cls-4" x="103.63" y="52.37" width="11.35" height="18.57"/><path class="cls-1" d="M109.31,45A9.68,9.68,0,1,1,119,35.34,9.69,9.69,0,0,1,109.31,45Zm0-11.35A1.68,1.68,0,1,0,111,35.34,1.68,1.68,0,0,0,109.31,33.67Z"/><path class="cls-1" d="M120.12,19.35a9.68,9.68,0,1,1,9.67-9.68A9.69,9.69,0,0,1,120.12,19.35Zm0-11.35a1.68,1.68,0,1,0,1.67,1.67A1.68,1.68,0,0,0,120.12,8Z"/><line class="cls-2" x1="101.47" y1="126.77" x2="101.47" y2="190.52"/><rect class="cls-3" x="97.47" y="126.77" width="8" height="63.75"/><line class="cls-2" x1="117.14" y1="126.77" x2="117.14" y2="190.52"/><rect class="cls-3" x="113.14" y="126.77" width="8" height="63.75"/><rect class="cls-2" x="101.47" y="90.2" width="15.67" height="22.87"/><path class="cls-5" d="M121.14,117.07H97.47V86.2h23.67Zm-15.67-8h7.67V94.2h-7.67Z"/><line class="cls-2" x1="132.03" y1="74.18" x2="132.03" y2="190.52"/><path class="cls-3" d="M132,194.52a4,4,0,0,1-4-4V74.18a4,4,0,0,1,8,0V190.52A4,4,0,0,1,132,194.52Z"/><line class="cls-2" x1="146.91" y1="126.77" x2="146.91" y2="190.52"/><rect class="cls-3" x="142.91" y="126.77" width="8" height="63.75"/><line class="cls-2" x1="161.8" y1="126.77" x2="161.8" y2="190.52"/><rect class="cls-3" x="157.8" y="126.77" width="8" height="63.75"/><line class="cls-2" x1="176.69" y1="126.77" x2="176.69" y2="190.52"/><rect class="cls-3" x="172.69" y="126.77" width="8" height="63.75"/><line class="cls-2" x1="191.57" y1="74.18" x2="191.57" y2="190.52"/><rect class="cls-3" x="187.57" y="74.18" width="8" height="116.34"/><line class="cls-2" x1="206.46" y1="148.75" x2="206.46" y2="190.52"/><rect class="cls-3" x="202.46" y="148.75" width="8" height="41.78"/><line class="cls-2" x1="221.34" y1="74.18" x2="221.34" y2="190.52"/><rect class="cls-3" x="217.34" y="74.18" width="8" height="116.34"/><rect class="cls-2" x="146.91" y="88.21" width="29.77" height="95.83"/><path class="cls-5" d="M180.69,188H142.91V84.21h37.78Zm-29.78-8h21.78V92.21H150.91Z"/><line class="cls-2" x1="150.82" y1="138.3" x2="173.16" y2="138.3"/><rect class="cls-3" x="150.82" y="134.3" width="22.34" height="8"/><line class="cls-2" x1="206.46" y1="106.95" x2="206.46" y2="132.89"/><rect class="cls-5" x="202.46" y="106.95" width="8" height="25.94"/><path class="cls-6" d="M206.46,144.82a8,8,0,1,1,8-8A8,8,0,0,1,206.46,144.82Zm0-8Z"/><rect class="cls-6" x="202.46" y="116.68" width="8" height="20.18"/><line class="cls-2" x1="206.46" y1="72.02" x2="206.46" y2="101.91"/><rect class="cls-3" x="202.46" y="72.02" width="8" height="29.89"/></g></g></svg>